<svg width="20" height="12" viewBox="0 0 20 12" fill="none" xmlns="http://www.w3.org/2000/svg">
<path d="M10 0.0390015C6.17879 0.0390015 2.71351 2.12962 0.15649 5.52535C-0.0521632 5.80355 -0.0521632 6.19222 0.15649 6.47042C2.71351 9.87024 6.17879 11.9609 10 11.9609C13.8212 11.9609 17.2865 9.87024 19.8435 6.47451C20.0522 6.19631 20.0522 5.80764 19.8435 5.52944C17.2865 2.12962 13.8212 0.0390015 10 0.0390015ZM10.2741 10.1975C7.73755 10.3571 5.64284 8.26647 5.80239 5.72582C5.93331 3.6311 7.63118 1.93324 9.72589 1.80232C12.2625 1.64277 14.3572 3.73339 14.1976 6.27404C14.0626 8.36466 12.3647 10.0625 10.2741 10.1975ZM10.1473 8.25829C8.78081 8.34421 7.65163 7.21912 7.74164 5.85265C7.81119 4.72346 8.72763 3.81112 9.85681 3.73748C11.2233 3.65156 12.3525 4.77665 12.2625 6.14312C12.1888 7.2764 11.2724 8.18874 10.1473 8.25829Z" fill="#B3C0D2"/>
</svg>
