<svg width="105" height="105" viewBox="0 0 105 105" fill="none" xmlns="http://www.w3.org/2000/svg">
<g clip-path="url(#clip0_14_330)">
<path d="M52.5 0C25.2994 0 3.28223 22.0127 3.28223 49.2177C3.28223 61.1445 7.57041 72.5735 15.3816 81.5366V101.922C15.3816 104.669 18.7082 106.022 20.6329 104.097L31.1542 93.5753C63.51 109.143 101.718 85.7499 101.718 49.2175C101.718 22.0172 79.705 0 52.5 0V0ZM32.0252 87.1139C30.8283 86.4659 29.3479 86.6816 28.3852 87.6438L21.5338 94.4953V80.3631C21.5338 79.5943 21.2458 78.8534 20.7268 78.2861C13.4449 70.3311 9.43457 60.0077 9.43457 49.2175C9.43457 25.4711 28.7537 6.15193 52.5002 6.15193C76.2466 6.15193 95.5657 25.4711 95.5657 49.2175C95.5655 81.8934 60.4779 102.521 32.0252 87.1139Z" fill="#2C830E"/>
<path d="M52.5001 21.7174C42.3175 21.7174 34.0332 30.0017 34.0332 40.1843C34.0332 41.8831 35.4105 43.2605 37.1094 43.2605C38.8082 43.2605 40.1855 41.8831 40.1855 40.1843C40.1855 33.3939 45.7099 27.8695 52.5003 27.8695C59.2906 27.8695 64.815 33.3939 64.815 40.1843C64.815 46.9746 59.2904 52.499 52.5001 52.499C50.8012 52.499 49.4239 53.8763 49.4239 55.5752V64.7932C49.4239 66.4921 50.8012 67.8694 52.5001 67.8694C54.1989 67.8694 55.5762 66.4921 55.5762 64.7932V58.395C64.2999 56.926 70.9669 49.3191 70.9669 40.1843C70.9669 30.0017 62.6826 21.7174 52.5001 21.7174Z" fill="#2C830E"/>
<path d="M52.5 80.1635C54.1933 80.1635 55.5659 78.7908 55.5659 77.0975C55.5659 75.4043 54.1933 74.0316 52.5 74.0316C50.8067 74.0316 49.4341 75.4043 49.4341 77.0975C49.4341 78.7908 50.8067 80.1635 52.5 80.1635Z" fill="#2C830E"/>
</g>
<defs>
<clipPath id="clip0_14_330">
<rect width="105" height="105" fill="white"/>
</clipPath>
</defs>
</svg>
