<svg width="27" height="27" viewBox="0 0 27 27" fill="none" xmlns="http://www.w3.org/2000/svg">
<path d="M13.4925 0.577535C8.19873 0.577535 3.17175 0.106494 1.25165 5.03566C0.458528 7.07149 0.573706 9.71545 0.573706 13.5013C0.573706 16.8234 0.467276 19.9457 1.25165 21.9655C3.16738 26.8975 8.23518 26.425 13.4896 26.425C18.5588 26.425 23.7856 26.953 25.729 21.9655C26.5236 19.9092 26.4069 17.3046 26.4069 13.5013C26.4069 8.45254 26.6854 5.19316 24.2375 2.74608C21.759 0.26691 18.4072 0.577535 13.4867 0.577535H13.4925ZM12.3349 2.90649C23.3773 2.88899 24.7828 1.66108 24.0072 18.7192C23.7316 24.7523 19.1391 24.0902 13.494 24.0902C3.20091 24.0902 2.90495 23.7957 2.90495 13.4955C2.90495 3.07566 3.7214 2.91233 12.3349 2.90358V2.90649ZM20.3886 5.0517C19.5327 5.0517 18.8388 5.74587 18.8388 6.60191C18.8388 7.45795 19.5327 8.15212 20.3886 8.15212C21.2444 8.15212 21.9383 7.45795 21.9383 6.60191C21.9383 5.74587 21.2444 5.0517 20.3886 5.0517ZM13.4925 6.86441C9.8287 6.86441 6.85888 9.8365 6.85888 13.5013C6.85888 17.1661 9.8287 20.1367 13.4925 20.1367C17.1563 20.1367 20.1247 17.1661 20.1247 13.5013C20.1247 9.8365 17.1563 6.86441 13.4925 6.86441ZM13.4925 9.19337C19.1858 9.19337 19.193 17.8092 13.4925 17.8092C7.80071 17.8092 7.79196 9.19337 13.4925 9.19337Z" fill="white"/>
</svg>
