<svg width="28" height="29" viewBox="0 0 28 29" fill="none" xmlns="http://www.w3.org/2000/svg">
<path d="M19.3749 17.0682C22.736 12.4275 21.6119 6.00151 16.8657 2.71589C12.1195 -0.56973 5.54748 0.528617 2.18718 5.1701C-1.17311 9.81079 -0.0498026 16.236 4.69717 19.5216C8.08476 21.8667 12.5635 22.0473 16.1366 19.9841L23.9002 27.5296C24.7385 28.3924 26.1332 28.427 27.0156 27.6073C27.8981 26.7885 27.9334 25.4248 27.0959 24.5619C27.0694 24.5345 27.0437 24.5093 27.0156 24.4834L19.3749 17.0682ZM10.7746 17.7717C7.02408 17.7724 3.98335 14.8016 3.98095 11.1345C3.98014 7.46729 7.01846 4.49413 10.7698 4.49256C14.5155 4.49099 17.5546 7.45708 17.5618 11.1195C17.5683 14.7875 14.5315 17.7654 10.7794 17.7717C10.7778 17.7717 10.777 17.7717 10.7746 17.7717Z" fill="white"/>
</svg>
