<svg width="78" height="80" viewBox="0 0 78 80" fill="none" xmlns="http://www.w3.org/2000/svg">
<path d="M75.5496 54.3873C77.189 52.2961 77.9753 50.0544 77.875 47.7457C77.7746 45.2028 76.637 43.212 75.7001 41.9908C76.7875 39.2806 77.2058 35.0146 73.5755 31.7022C70.9155 29.2765 66.3986 28.189 60.1418 28.4902C55.742 28.6909 52.0615 29.5107 51.9109 29.5441H51.8942C51.0577 29.6947 50.1711 29.8787 49.2677 30.0795C49.2008 29.0088 49.3848 26.3488 51.3589 20.3597C53.701 13.233 53.5671 7.77917 50.9239 4.13216C48.1468 0.301129 43.7135 0 42.4086 0C41.1539 0 39.9996 0.518611 39.1798 1.47219C37.3229 3.63028 37.5404 7.61188 37.7746 9.45211C35.5663 15.3743 29.3764 29.8954 24.1401 33.9272C24.0397 33.9941 23.9561 34.0778 23.8724 34.1614C22.3333 35.7842 21.2961 37.5408 20.5935 39.0799C19.6064 38.5445 18.4856 38.2434 17.2811 38.2434H7.07613C3.22837 38.2434 0.116699 41.3718 0.116699 45.2028V72.3881C0.116699 76.2359 3.2451 79.3475 7.07613 79.3475H17.2811C18.77 79.3475 20.1585 78.8791 21.2961 78.0761L25.2275 78.5445C25.8298 78.6282 36.5366 79.9833 47.5278 79.7658C49.5186 79.9163 51.3923 80 53.1322 80C56.1267 80 58.7365 79.7658 60.9113 79.2974C66.0305 78.21 69.527 76.0351 71.3003 72.8398C72.6554 70.3973 72.6554 67.9716 72.4379 66.4324C75.767 63.4212 76.3526 60.092 76.2355 57.7499C76.1685 56.3948 75.8674 55.2405 75.5496 54.3873ZM7.07613 74.8306C5.72105 74.8306 4.63364 73.7265 4.63364 72.3881V45.1861C4.63364 43.831 5.73778 42.7436 7.07613 42.7436H17.2811C18.6361 42.7436 19.7236 43.8478 19.7236 45.1861V72.3714C19.7236 73.7265 18.6194 74.8139 17.2811 74.8139H7.07613V74.8306ZM71.2668 52.4299C70.5642 53.166 70.4304 54.2869 70.9657 55.1568C70.9657 55.1736 71.6516 56.3446 71.7353 57.9506C71.8524 60.1422 70.7984 62.0828 68.5901 63.739C67.8039 64.3413 67.486 65.3785 67.8206 66.3153C67.8206 66.3321 68.5399 68.5404 67.3689 70.6315C66.248 72.6391 63.7553 74.0778 59.9745 74.8808C56.9465 75.5332 52.831 75.6504 47.7788 75.2488C47.7118 75.2488 47.6282 75.2488 47.5445 75.2488C36.7875 75.4831 25.9134 74.0778 25.7963 74.0611H25.7796L24.0899 73.8603C24.1903 73.3919 24.2405 72.89 24.2405 72.3881V45.1861C24.2405 44.4667 24.1234 43.7641 23.9226 43.1117C24.2238 41.9908 25.0602 39.4981 27.0343 37.3735C34.5458 31.4178 41.89 11.3258 42.2079 10.4559C42.3417 10.1046 42.3752 9.71978 42.3082 9.33501C42.0238 7.46131 42.1242 5.16938 42.5257 4.48348C43.4124 4.50021 45.8047 4.75115 47.2434 6.74195C48.9498 9.10079 48.8829 13.3166 47.0427 18.9042C44.2321 27.4195 43.9979 31.903 46.2229 33.877C47.3271 34.8641 48.7993 34.9143 49.8699 34.5295C50.8904 34.2953 51.8607 34.0945 52.7809 33.944C52.8478 33.9272 52.9314 33.9105 52.9983 33.8938C58.1343 32.7729 67.3354 32.087 70.5307 34.9979C73.2409 37.4739 71.317 40.7528 71.0995 41.1041C70.4806 42.041 70.6646 43.2622 71.5011 44.0151C71.5178 44.0318 73.2744 45.688 73.358 47.913C73.4249 49.4019 72.7223 50.9243 71.2668 52.4299Z" fill="#002C6A"/>
</svg>
