<svg width="20" height="20" viewBox="0 0 20 20" fill="none" xmlns="http://www.w3.org/2000/svg">
<path d="M19.4504 14.678L16.6601 11.8869C15.6635 10.8901 13.9694 11.2889 13.5708 12.5847C13.2718 13.4819 12.2753 13.9803 11.3784 13.7809C9.38535 13.2825 6.69471 10.6908 6.19644 8.59746C5.89748 7.7003 6.4954 6.70349 7.39228 6.40448C8.68778 6.00576 9.08639 4.31119 8.08986 3.31438L5.29956 0.523324C4.50233 -0.174441 3.30648 -0.174441 2.60891 0.523324L0.715489 2.41726C-1.17793 4.41087 0.914797 9.69395 5.59852 14.3789C10.2822 19.0639 15.5639 21.2569 17.557 19.2633L19.4504 17.3694C20.148 16.5719 20.148 15.3757 19.4504 14.678Z" fill="#B3C0D2"/>
</svg>
