<svg width="20" height="12" viewBox="0 0 20 12" fill="none" xmlns="http://www.w3.org/2000/svg">
<path d="M19.1148 6.91686C19.0851 6.48818 19.025 6.02056 18.9366 5.52676C18.8473 5.02926 18.7323 4.55896 18.5947 4.12911C18.4525 3.68482 18.2592 3.24607 18.0202 2.82561C17.7721 2.38921 17.4807 2.00921 17.1537 1.69651C16.8118 1.36938 16.3932 1.10637 15.9092 0.914519C15.4268 0.723678 14.8922 0.626999 14.3203 0.626999C14.0957 0.626999 13.8786 0.719146 13.4591 0.992232C13.201 1.16058 12.899 1.35528 12.562 1.57063C12.2738 1.75425 11.8834 1.9263 11.4011 2.08206C10.9307 2.23429 10.453 2.3115 9.9815 2.3115C9.51002 2.3115 9.0325 2.23429 8.56152 2.08206C8.07981 1.92646 7.6894 1.75442 7.40154 1.5708C7.06769 1.35746 6.76557 1.16276 6.50356 0.992064C6.08462 0.718979 5.86726 0.626831 5.64268 0.626831C5.07066 0.626831 4.53624 0.723678 4.05402 0.914687C3.57029 1.1062 3.15151 1.36921 2.80927 1.69668C2.48248 2.00955 2.19093 2.38938 1.94319 2.82561C1.70434 3.24607 1.51098 3.68465 1.36865 4.12927C1.23118 4.55913 1.11621 5.02926 1.02692 5.52676C0.938461 6.01989 0.878372 6.48768 0.848663 6.91737C0.819458 7.33832 0.804688 7.77523 0.804688 8.21649C0.804688 9.3649 1.16975 10.2946 1.88964 10.9802C2.60064 11.6568 3.54142 12.0001 4.68546 12.0001H15.2786C16.4226 12.0001 17.363 11.657 18.0742 10.9802C18.7943 10.2951 19.1593 9.36523 19.1593 8.21633C19.1592 7.77304 19.1442 7.3358 19.1148 6.91686Z" fill="white"/>
</svg>
