<svg width="24" height="14" viewBox="0 0 24 14" fill="none" xmlns="http://www.w3.org/2000/svg">
<path fill-rule="evenodd" clip-rule="evenodd" d="M11.8168 13.1753H13.1899C13.1899 13.1753 13.6047 13.1298 13.8165 12.9014C14.0114 12.6918 14.0052 12.2981 14.0052 12.2981C14.0052 12.2981 13.9783 10.4551 14.8335 10.1837C15.6765 9.91631 16.759 11.9649 17.9063 12.7526C18.774 13.3487 19.4333 13.218 19.4333 13.218L22.5011 13.1753C22.5011 13.1753 24.106 13.0764 23.345 11.8142C23.2827 11.711 22.9019 10.8806 21.064 9.17417C19.1404 7.38824 19.398 7.67711 21.7152 4.58782C23.1264 2.70643 23.6906 1.55781 23.5144 1.06586C23.3463 0.597307 22.3084 0.721153 22.3084 0.721153L18.8541 0.742678C18.8541 0.742678 18.5981 0.707738 18.4081 0.82129C18.2226 0.932657 18.1031 1.1922 18.1031 1.1922C18.1031 1.1922 17.5564 2.64809 16.8273 3.88624C15.2891 6.49885 14.6741 6.63674 14.4228 6.47452C13.838 6.09643 13.984 4.95562 13.984 4.14516C13.984 1.61334 14.3679 0.55769 13.2364 0.284418C12.8609 0.193639 12.5846 0.133744 11.6243 0.124073C10.3918 0.111283 9.34863 0.127816 8.75795 0.41731C8.365 0.609785 8.06186 1.03872 8.24648 1.06337C8.47477 1.09394 8.99185 1.20281 9.26599 1.57622C9.61996 2.05788 9.60748 3.13973 9.60748 3.13973C9.60748 3.13973 9.81082 6.12014 9.13251 6.49043C8.66689 6.74436 8.02817 6.22589 6.65688 3.85567C5.95424 2.64154 5.42375 1.29952 5.42375 1.29952C5.42375 1.29952 5.32146 1.0487 5.13901 0.914564C4.91759 0.752036 4.60821 0.700253 4.60821 0.700253L1.32578 0.721776C1.32578 0.721776 0.833028 0.735503 0.652143 0.949816C0.491218 1.14042 0.639356 1.53473 0.639356 1.53473C0.639356 1.53473 3.20916 7.54858 6.11891 10.5792C8.78695 13.3578 11.8168 13.1753 11.8168 13.1753Z" fill="white"/>
</svg>
