<svg width="22" height="20" viewBox="0 0 22 20" fill="none" xmlns="http://www.w3.org/2000/svg">
<path d="M20.6446 16.7123C20.2225 17.9045 18.5473 18.8932 17.2111 19.182C16.297 19.3766 15.103 19.532 11.0834 17.8651C5.94201 15.7345 2.63103 10.5085 2.37297 10.1695C2.12585 9.8304 0.29541 7.40228 0.29541 4.89103C0.29541 2.37978 1.57038 1.15696 2.0843 0.631963C2.50638 0.201026 3.204 0.00415039 3.87319 0.00415039C4.0897 0.00415039 4.28433 0.015088 4.45928 0.023838C4.97321 0.045713 5.23126 0.0763385 5.57023 0.887901C5.99231 1.90509 7.02015 4.41634 7.14262 4.67446C7.26727 4.93259 7.39193 5.28259 7.21698 5.62165C7.05296 5.97165 6.90862 6.12696 6.65057 6.42446C6.39251 6.72196 6.14758 6.94946 5.88952 7.26884C5.65334 7.54665 5.38653 7.84415 5.68395 8.35821C5.98137 8.86134 7.00922 10.5391 8.52256 11.8866C10.4755 13.6257 12.0588 14.1813 12.6252 14.4176C13.0473 14.5926 13.5503 14.551 13.8586 14.2229C14.2501 13.8007 14.7334 13.1007 15.2254 12.4116C15.5753 11.9173 16.0171 11.856 16.4807 12.031C16.9531 12.1951 19.4527 13.431 19.9667 13.687C20.4806 13.9451 20.8195 14.0676 20.9442 14.2841C21.0667 14.5007 21.0667 15.5179 20.6446 16.7123Z" fill="#FAFAFA"/>
</svg>
